<?xml version="1.0" encoding="utf-8"?>
<!-- Generator: Adobe Illustrator 13.0.0, SVG Export Plug-In . SVG Version: 6.00 Build 14948)  -->
<!DOCTYPE svg PUBLIC "-//W3C//DTD SVG 1.1//EN" "http://www.w3.org/Graphics/SVG/1.1/DTD/svg11.dtd">
<svg version="1.1" id="Layer_1" xmlns="http://www.w3.org/2000/svg" xmlns:xlink="http://www.w3.org/1999/xlink" x="0px" y="0px"
	 width="53.229px" height="29.014px" viewBox="0 0 53.229 29.014" enable-background="new 0 0 53.229 29.014" xml:space="preserve">
<g>
	<defs>
		<rect id="SVGID_1_" x="0.001" width="53.229" height="29.014"/>
	</defs>
	<clipPath id="SVGID_2_">
		<use xlink:href="#SVGID_1_"  overflow="visible"/>
	</clipPath>
	<path clip-path="url(#SVGID_2_)" fill="#ED1D24" d="M36.739,16.937c0.308-0.22,0.642-0.476,0.953-0.721
		c2.396-1.917,4.226-4.018,4.589-5.18c0.011-0.038,0.043-0.146,0.043-0.231c0-0.12-0.057-0.204-0.166-0.204
		c-1.1,0-4.629,3.514-5.483,6.359v0.01L36.739,16.937z M27.893,16.533c3.336-2.52,6.841-6.189,7.215-7.695
		c0.011-0.049,0.022-0.097,0.021-0.143c-0.005-0.1-0.059-0.188-0.185-0.188C33.888,8.507,28.999,13.016,27.893,16.533 M7.41,18.748
		c-0.881-0.611-2.243-1.145-3.46-1.145c-1.18,0-1.936,0.464-1.936,1.049c0,0.671,0.916,0.965,1.942,0.965
		C5.2,19.617,6.329,19.281,7.41,18.748 M17.629,10.843c2.392-0.767,4.66-2.37,6.353-4.044c1.563-1.549,2.815-3.388,2.815-4.299
		c0-0.208-0.148-0.333-0.338-0.333c-0.723,0-2.097,0.961-3.946,2.812C21.074,6.422,19.397,8.392,17.629,10.843 M53.229,16.625
		c-2.054,2.044-8.454,7.662-10.148,12.389l-2.098-0.541c0.686-1.958,2.751-5.003,5.052-7.352c-0.49,0.184-1,0.253-1.41,0.253
		c-0.622,0-1.105-0.188-1.396-0.54c-0.208-0.254-0.314-0.585-0.314-0.979c0-0.086,0.006-0.172,0.018-0.269
		c-2.021,1.231-3.646,1.787-5.238,1.787c-1.239,0-2.282-0.54-2.765-1.487c-2.006,0.995-3.93,1.487-5.538,1.487
		c-1.497,0-2.704-0.593-3.258-1.673c-2.028,1.14-3.754,1.673-5.127,1.673c-0.79,0-1.417-0.219-1.819-0.634
		c-0.296-0.306-0.452-0.717-0.475-1.192c-1.3,0.857-3.2,1.826-5.147,1.826c-1.992,0-3.328-0.684-4.365-1.362
		c-1.654,0.916-3.474,1.362-5.398,1.362c-1.454,0-3.8-0.605-3.8-2.69C0,17,1.756,15.86,4.106,15.86c1.998,0,3.923,0.842,5.131,1.716
		c1.146-0.913,2.349-2.19,3.768-3.995c-0.312,0.018-0.617,0.026-0.917,0.026c-2.717,0-4.986-0.801-6.225-2.203
		c-0.669-0.758-0.986-1.647-0.986-2.604c0-3.78,4.775-6.713,8.952-7.145c0.276,0.626,0.522,1.108,0.777,1.681
		c-4.126,0.48-7.563,2.922-7.563,5.309c0,1.569,1.763,3.145,5.506,3.145c0.641,0,1.285-0.062,1.919-0.149
		C17.772,7.081,22.834,0,27.191,0c1.289,0,1.963,0.784,1.963,1.832c0,2.156-1.855,4.477-3.063,5.688
		c-1.898,1.907-5.332,4.745-10.127,5.685c-1.865,2.595-3.398,4.316-4.932,5.559c0.929,0.501,1.801,0.809,2.84,0.809
		c2.581,0,5.085-2.362,7.04-4.365l0.069-0.067l1.524,1.192l-0.07,0.084c-0.864,0.991-1.661,2.039-1.661,2.626
		c0,0.445,0.377,0.533,0.7,0.533c0.988,0,2.512-0.64,4.305-1.742v-0.015c0.198-4.43,6.244-11.205,9.914-11.205
		c1.036,0,1.631,0.516,1.631,1.42c0,2.221-3.831,6.982-9.404,10.626v0.003c0.288,0.62,0.952,0.919,2.079,0.919
		c0.879,0,2.599-0.392,4.643-1.46c0.236-2.295,1.537-4.76,3.187-6.517c1.655-1.759,3.51-2.902,5.114-2.902
		c0.989,0,1.573,0.544,1.573,1.399c0,1.937-2.249,5.249-7.667,8.717c0.24,0.464,0.705,0.757,1.429,0.757
		c1.614,0,4.457-1.722,6.671-3.839l1.59,1.234c-0.679,0.824-1.366,1.729-1.344,2.25c0.006,0.169,0.12,0.283,0.387,0.283
		c1.632,0,4.201-2.155,6.127-4.057L53.229,16.625 M23.688,12.182c0.721,0,1.303,0.585,1.303,1.305c0,0.721-0.582,1.305-1.303,1.305
		c-0.724,0-1.308-0.584-1.308-1.305C22.381,12.767,22.965,12.182,23.688,12.182"/>
</g>
</svg>
